<mxfile host="Electron" modified="2023-09-01T14:34:23.003Z" agent="Mozilla/5.0 (Macintosh; Intel Mac OS X 10_15_7) AppleWebKit/537.36 (KHTML, like Gecko) draw.io/21.6.8 Chrome/114.0.5735.289 Electron/25.5.0 Safari/537.36" etag="1NpVFBTZ64P-y8NnGSWp" version="21.6.8" type="device">
  <diagram name="Page-1" id="t4NAFJKeUPYWKHXzNqqg">
    <mxGraphModel dx="954" dy="601" grid="1" gridSize="10" guides="1" tooltips="1" connect="1" arrows="1" fold="1" page="0" pageScale="1" pageWidth="827" pageHeight="1169" math="0" shadow="0">
      <root>
        <mxCell id="0" />
        <mxCell id="1" parent="0" />
        <mxCell id="4752XUYn1DsE7La_0IoM-2" value="Exercise 01" style="text;html=1;strokeColor=none;fillColor=none;align=center;verticalAlign=middle;whiteSpace=wrap;rounded=0;fontSize=24;" parent="1" vertex="1">
          <mxGeometry x="40" y="40" width="160" height="30" as="geometry" />
        </mxCell>
        <mxCell id="4752XUYn1DsE7La_0IoM-3" value="&lt;i&gt;GeometricObject&lt;/i&gt;" style="swimlane;fontStyle=1;align=center;verticalAlign=top;childLayout=stackLayout;horizontal=1;startSize=26;horizontalStack=0;resizeParent=1;resizeParentMax=0;resizeLast=0;collapsible=1;marginBottom=0;whiteSpace=wrap;html=1;" parent="1" vertex="1">
          <mxGeometry x="200" y="40" width="160" height="190" as="geometry" />
        </mxCell>
        <mxCell id="4752XUYn1DsE7La_0IoM-4" value="- color: String&lt;br&gt;- filled: boolean&lt;br&gt;- dateCreated: java.util.Date" style="text;strokeColor=none;fillColor=none;align=left;verticalAlign=top;spacingLeft=4;spacingRight=4;overflow=hidden;rotatable=0;points=[[0,0.5],[1,0.5]];portConstraint=eastwest;whiteSpace=wrap;html=1;" parent="4752XUYn1DsE7La_0IoM-3" vertex="1">
          <mxGeometry y="26" width="160" height="64" as="geometry" />
        </mxCell>
        <mxCell id="4752XUYn1DsE7La_0IoM-5" value="" style="line;strokeWidth=1;fillColor=none;align=left;verticalAlign=middle;spacingTop=-1;spacingLeft=3;spacingRight=3;rotatable=0;labelPosition=right;points=[];portConstraint=eastwest;strokeColor=inherit;" parent="4752XUYn1DsE7La_0IoM-3" vertex="1">
          <mxGeometry y="90" width="160" height="8" as="geometry" />
        </mxCell>
        <mxCell id="4752XUYn1DsE7La_0IoM-6" value="# GeometricObject()&lt;br&gt;# GeometricObject(color: String, filled: boolean)&lt;br&gt;&lt;i&gt;+ getArea(): double&lt;br&gt;+ getPerimeter(): double&lt;/i&gt;" style="text;strokeColor=none;fillColor=none;align=left;verticalAlign=top;spacingLeft=4;spacingRight=4;overflow=hidden;rotatable=0;points=[[0,0.5],[1,0.5]];portConstraint=eastwest;whiteSpace=wrap;html=1;" parent="4752XUYn1DsE7La_0IoM-3" vertex="1">
          <mxGeometry y="98" width="160" height="92" as="geometry" />
        </mxCell>
        <mxCell id="4752XUYn1DsE7La_0IoM-8" value="Triangle" style="swimlane;fontStyle=1;align=center;verticalAlign=top;childLayout=stackLayout;horizontal=1;startSize=26;horizontalStack=0;resizeParent=1;resizeParentMax=0;resizeLast=0;collapsible=1;marginBottom=0;whiteSpace=wrap;html=1;" parent="1" vertex="1">
          <mxGeometry x="200" y="270" width="160" height="200" as="geometry" />
        </mxCell>
        <mxCell id="4752XUYn1DsE7La_0IoM-9" value="- side1: double&lt;br&gt;- side2: double&lt;br&gt;- side3: double" style="text;strokeColor=none;fillColor=none;align=left;verticalAlign=top;spacingLeft=4;spacingRight=4;overflow=hidden;rotatable=0;points=[[0,0.5],[1,0.5]];portConstraint=eastwest;whiteSpace=wrap;html=1;" parent="4752XUYn1DsE7La_0IoM-8" vertex="1">
          <mxGeometry y="26" width="160" height="54" as="geometry" />
        </mxCell>
        <mxCell id="4752XUYn1DsE7La_0IoM-10" value="" style="line;strokeWidth=1;fillColor=none;align=left;verticalAlign=middle;spacingTop=-1;spacingLeft=3;spacingRight=3;rotatable=0;labelPosition=right;points=[];portConstraint=eastwest;strokeColor=inherit;" parent="4752XUYn1DsE7La_0IoM-8" vertex="1">
          <mxGeometry y="80" width="160" height="8" as="geometry" />
        </mxCell>
        <mxCell id="4752XUYn1DsE7La_0IoM-11" value="+ Triangle()&lt;br&gt;+ Triangle(side1: double, side2: double, side3: double)&lt;br&gt;+ getArea(): double&lt;br&gt;+ getPerimeter(): double" style="text;strokeColor=none;fillColor=none;align=left;verticalAlign=top;spacingLeft=4;spacingRight=4;overflow=hidden;rotatable=0;points=[[0,0.5],[1,0.5]];portConstraint=eastwest;whiteSpace=wrap;html=1;" parent="4752XUYn1DsE7La_0IoM-8" vertex="1">
          <mxGeometry y="88" width="160" height="112" as="geometry" />
        </mxCell>
        <mxCell id="4752XUYn1DsE7La_0IoM-13" value="Exercise 05" style="text;html=1;strokeColor=none;fillColor=none;align=center;verticalAlign=middle;whiteSpace=wrap;rounded=0;fontSize=24;" parent="1" vertex="1">
          <mxGeometry x="600" y="40" width="160" height="30" as="geometry" />
        </mxCell>
        <mxCell id="4752XUYn1DsE7La_0IoM-14" value="&lt;i&gt;GeometricObject&lt;/i&gt;" style="swimlane;fontStyle=1;align=center;verticalAlign=top;childLayout=stackLayout;horizontal=1;startSize=26;horizontalStack=0;resizeParent=1;resizeParentMax=0;resizeLast=0;collapsible=1;marginBottom=0;whiteSpace=wrap;html=1;" parent="1" vertex="1">
          <mxGeometry x="760" y="160" width="160" height="280" as="geometry" />
        </mxCell>
        <mxCell id="4752XUYn1DsE7La_0IoM-15" value="- color: String&lt;br&gt;- filled: boolean&lt;br&gt;- dateCreated: java.util.Date" style="text;strokeColor=none;fillColor=none;align=left;verticalAlign=top;spacingLeft=4;spacingRight=4;overflow=hidden;rotatable=0;points=[[0,0.5],[1,0.5]];portConstraint=eastwest;whiteSpace=wrap;html=1;" parent="4752XUYn1DsE7La_0IoM-14" vertex="1">
          <mxGeometry y="26" width="160" height="64" as="geometry" />
        </mxCell>
        <mxCell id="4752XUYn1DsE7La_0IoM-16" value="" style="line;strokeWidth=1;fillColor=none;align=left;verticalAlign=middle;spacingTop=-1;spacingLeft=3;spacingRight=3;rotatable=0;labelPosition=right;points=[];portConstraint=eastwest;strokeColor=inherit;" parent="4752XUYn1DsE7La_0IoM-14" vertex="1">
          <mxGeometry y="90" width="160" height="8" as="geometry" />
        </mxCell>
        <mxCell id="4752XUYn1DsE7La_0IoM-17" value="# GeometricObject()&lt;br&gt;# GeometricObject(color: String, filled: boolean)&lt;br&gt;&lt;i&gt;+ getArea(): double&lt;br&gt;+ getPerimeter(): double&lt;/i&gt;&lt;br&gt;+ &lt;u&gt;max(obj1: GeometricObject, obj2: GeometricObject): GeometricObject&lt;/u&gt;&lt;br&gt;+ compareTo(obj: GeometricObject): int" style="text;strokeColor=none;fillColor=none;align=left;verticalAlign=top;spacingLeft=4;spacingRight=4;overflow=hidden;rotatable=0;points=[[0,0.5],[1,0.5]];portConstraint=eastwest;whiteSpace=wrap;html=1;" parent="4752XUYn1DsE7La_0IoM-14" vertex="1">
          <mxGeometry y="98" width="160" height="182" as="geometry" />
        </mxCell>
        <mxCell id="4752XUYn1DsE7La_0IoM-18" value="«interface»&lt;br&gt;&lt;b&gt;&lt;i&gt;java.lang.Comparable&lt;/i&gt;&lt;/b&gt;" style="html=1;whiteSpace=wrap;" parent="1" vertex="1">
          <mxGeometry x="765" y="40" width="150" height="50" as="geometry" />
        </mxCell>
        <mxCell id="4752XUYn1DsE7La_0IoM-21" value="" style="endArrow=block;html=1;rounded=0;dashed=1;endFill=0;" parent="1" source="4752XUYn1DsE7La_0IoM-14" target="4752XUYn1DsE7La_0IoM-18" edge="1">
          <mxGeometry width="50" height="50" relative="1" as="geometry">
            <mxPoint x="630" y="290" as="sourcePoint" />
            <mxPoint x="680" y="240" as="targetPoint" />
          </mxGeometry>
        </mxCell>
        <mxCell id="4752XUYn1DsE7La_0IoM-22" value="Exercise 06" style="text;html=1;strokeColor=none;fillColor=none;align=center;verticalAlign=middle;whiteSpace=wrap;rounded=0;fontSize=24;" parent="1" vertex="1">
          <mxGeometry x="40" y="570" width="160" height="30" as="geometry" />
        </mxCell>
        <mxCell id="4752XUYn1DsE7La_0IoM-41" style="edgeStyle=orthogonalEdgeStyle;rounded=0;orthogonalLoop=1;jettySize=auto;html=1;endArrow=block;endFill=0;" parent="1" source="4752XUYn1DsE7La_0IoM-32" target="4752XUYn1DsE7La_0IoM-37" edge="1">
          <mxGeometry relative="1" as="geometry" />
        </mxCell>
        <mxCell id="4752XUYn1DsE7La_0IoM-32" value="Circle" style="swimlane;fontStyle=1;align=center;verticalAlign=top;childLayout=stackLayout;horizontal=1;startSize=26;horizontalStack=0;resizeParent=1;resizeParentMax=0;resizeLast=0;collapsible=1;marginBottom=0;whiteSpace=wrap;html=1;" parent="1" vertex="1">
          <mxGeometry x="210" y="800" width="160" height="160" as="geometry" />
        </mxCell>
        <mxCell id="4752XUYn1DsE7La_0IoM-33" value="- radius: double" style="text;strokeColor=none;fillColor=none;align=left;verticalAlign=top;spacingLeft=4;spacingRight=4;overflow=hidden;rotatable=0;points=[[0,0.5],[1,0.5]];portConstraint=eastwest;whiteSpace=wrap;html=1;" parent="4752XUYn1DsE7La_0IoM-32" vertex="1">
          <mxGeometry y="26" width="160" height="26" as="geometry" />
        </mxCell>
        <mxCell id="4752XUYn1DsE7La_0IoM-34" value="" style="line;strokeWidth=1;fillColor=none;align=left;verticalAlign=middle;spacingTop=-1;spacingLeft=3;spacingRight=3;rotatable=0;labelPosition=right;points=[];portConstraint=eastwest;strokeColor=inherit;" parent="4752XUYn1DsE7La_0IoM-32" vertex="1">
          <mxGeometry y="52" width="160" height="8" as="geometry" />
        </mxCell>
        <mxCell id="4752XUYn1DsE7La_0IoM-35" value="+ Circle()&lt;br&gt;+ Circle(radius: double)&lt;br&gt;+ Circle(radius: double, color: String, filled: boolean)&lt;br&gt;+ getDiameter(): double" style="text;strokeColor=none;fillColor=none;align=left;verticalAlign=top;spacingLeft=4;spacingRight=4;overflow=hidden;rotatable=0;points=[[0,0.5],[1,0.5]];portConstraint=eastwest;whiteSpace=wrap;html=1;" parent="4752XUYn1DsE7La_0IoM-32" vertex="1">
          <mxGeometry y="60" width="160" height="100" as="geometry" />
        </mxCell>
        <mxCell id="4752XUYn1DsE7La_0IoM-36" value="" style="endArrow=block;html=1;rounded=0;endFill=0;" parent="1" source="4752XUYn1DsE7La_0IoM-8" target="4752XUYn1DsE7La_0IoM-3" edge="1">
          <mxGeometry width="50" height="50" relative="1" as="geometry">
            <mxPoint x="279.58" y="290" as="sourcePoint" />
            <mxPoint x="279.58" y="220" as="targetPoint" />
          </mxGeometry>
        </mxCell>
        <mxCell id="4752XUYn1DsE7La_0IoM-37" value="&lt;i&gt;GeometricObject&lt;/i&gt;" style="swimlane;fontStyle=1;align=center;verticalAlign=top;childLayout=stackLayout;horizontal=1;startSize=26;horizontalStack=0;resizeParent=1;resizeParentMax=0;resizeLast=0;collapsible=1;marginBottom=0;whiteSpace=wrap;html=1;" parent="1" vertex="1">
          <mxGeometry x="210" y="570" width="160" height="190" as="geometry" />
        </mxCell>
        <mxCell id="4752XUYn1DsE7La_0IoM-38" value="- color: String&lt;br&gt;- filled: boolean&lt;br&gt;- dateCreated: java.util.Date" style="text;strokeColor=none;fillColor=none;align=left;verticalAlign=top;spacingLeft=4;spacingRight=4;overflow=hidden;rotatable=0;points=[[0,0.5],[1,0.5]];portConstraint=eastwest;whiteSpace=wrap;html=1;" parent="4752XUYn1DsE7La_0IoM-37" vertex="1">
          <mxGeometry y="26" width="160" height="64" as="geometry" />
        </mxCell>
        <mxCell id="4752XUYn1DsE7La_0IoM-39" value="" style="line;strokeWidth=1;fillColor=none;align=left;verticalAlign=middle;spacingTop=-1;spacingLeft=3;spacingRight=3;rotatable=0;labelPosition=right;points=[];portConstraint=eastwest;strokeColor=inherit;" parent="4752XUYn1DsE7La_0IoM-37" vertex="1">
          <mxGeometry y="90" width="160" height="8" as="geometry" />
        </mxCell>
        <mxCell id="4752XUYn1DsE7La_0IoM-40" value="# GeometricObject()&lt;br&gt;# GeometricObject(color: String, filled: boolean)&lt;br&gt;&lt;i&gt;+ getArea(): double&lt;br&gt;+ getPerimeter(): double&lt;/i&gt;" style="text;strokeColor=none;fillColor=none;align=left;verticalAlign=top;spacingLeft=4;spacingRight=4;overflow=hidden;rotatable=0;points=[[0,0.5],[1,0.5]];portConstraint=eastwest;whiteSpace=wrap;html=1;" parent="4752XUYn1DsE7La_0IoM-37" vertex="1">
          <mxGeometry y="98" width="160" height="92" as="geometry" />
        </mxCell>
        <mxCell id="4752XUYn1DsE7La_0IoM-42" value="«interface»&lt;br&gt;&lt;b&gt;&lt;i&gt;java.lang.Comparable&lt;/i&gt;&lt;/b&gt;" style="html=1;whiteSpace=wrap;" parent="1" vertex="1">
          <mxGeometry x="405" y="870" width="150" height="50" as="geometry" />
        </mxCell>
        <mxCell id="4752XUYn1DsE7La_0IoM-43" value="ComparableCircle" style="swimlane;fontStyle=1;align=center;verticalAlign=top;childLayout=stackLayout;horizontal=1;startSize=26;horizontalStack=0;resizeParent=1;resizeParentMax=0;resizeLast=0;collapsible=1;marginBottom=0;whiteSpace=wrap;html=1;" parent="1" vertex="1">
          <mxGeometry x="300" y="1000" width="160" height="80" as="geometry" />
        </mxCell>
        <mxCell id="4752XUYn1DsE7La_0IoM-45" value="" style="line;strokeWidth=1;fillColor=none;align=left;verticalAlign=middle;spacingTop=-1;spacingLeft=3;spacingRight=3;rotatable=0;labelPosition=right;points=[];portConstraint=eastwest;strokeColor=inherit;" parent="4752XUYn1DsE7La_0IoM-43" vertex="1">
          <mxGeometry y="26" width="160" height="8" as="geometry" />
        </mxCell>
        <mxCell id="4752XUYn1DsE7La_0IoM-46" value="+ compareTo(circle: ComparableCircle): int" style="text;strokeColor=none;fillColor=none;align=left;verticalAlign=top;spacingLeft=4;spacingRight=4;overflow=hidden;rotatable=0;points=[[0,0.5],[1,0.5]];portConstraint=eastwest;whiteSpace=wrap;html=1;" parent="4752XUYn1DsE7La_0IoM-43" vertex="1">
          <mxGeometry y="34" width="160" height="46" as="geometry" />
        </mxCell>
        <mxCell id="4752XUYn1DsE7La_0IoM-47" value="" style="endArrow=block;html=1;rounded=0;exitX=0.216;exitY=-0.044;exitDx=0;exitDy=0;exitPerimeter=0;endFill=0;" parent="1" source="4752XUYn1DsE7La_0IoM-43" target="4752XUYn1DsE7La_0IoM-32" edge="1">
          <mxGeometry width="50" height="50" relative="1" as="geometry">
            <mxPoint x="230" y="1060" as="sourcePoint" />
            <mxPoint x="280" y="1010" as="targetPoint" />
          </mxGeometry>
        </mxCell>
        <mxCell id="4752XUYn1DsE7La_0IoM-48" value="" style="endArrow=block;html=1;rounded=0;entryX=0.5;entryY=1;entryDx=0;entryDy=0;exitX=0.75;exitY=0;exitDx=0;exitDy=0;dashed=1;endFill=0;" parent="1" source="4752XUYn1DsE7La_0IoM-43" target="4752XUYn1DsE7La_0IoM-42" edge="1">
          <mxGeometry width="50" height="50" relative="1" as="geometry">
            <mxPoint x="200" y="1140" as="sourcePoint" />
            <mxPoint x="250" y="1090" as="targetPoint" />
          </mxGeometry>
        </mxCell>
        <mxCell id="4752XUYn1DsE7La_0IoM-49" value="Exercise 07" style="text;html=1;strokeColor=none;fillColor=none;align=center;verticalAlign=middle;whiteSpace=wrap;rounded=0;fontSize=24;" parent="1" vertex="1">
          <mxGeometry x="590" y="570" width="160" height="30" as="geometry" />
        </mxCell>
        <mxCell id="4752XUYn1DsE7La_0IoM-50" value="&lt;i&gt;&amp;lt;&amp;lt;interface&amp;gt;&amp;gt;&lt;br&gt;Colorable&lt;/i&gt;" style="swimlane;fontStyle=1;align=center;verticalAlign=top;childLayout=stackLayout;horizontal=1;startSize=40;horizontalStack=0;resizeParent=1;resizeParentMax=0;resizeLast=0;collapsible=1;marginBottom=0;whiteSpace=wrap;html=1;" parent="1" vertex="1">
          <mxGeometry x="960" y="660" width="160" height="66" as="geometry" />
        </mxCell>
        <mxCell id="4752XUYn1DsE7La_0IoM-53" value="+ howToColor(): void" style="text;strokeColor=none;fillColor=none;align=left;verticalAlign=top;spacingLeft=4;spacingRight=4;overflow=hidden;rotatable=0;points=[[0,0.5],[1,0.5]];portConstraint=eastwest;whiteSpace=wrap;html=1;" parent="4752XUYn1DsE7La_0IoM-50" vertex="1">
          <mxGeometry y="40" width="160" height="26" as="geometry" />
        </mxCell>
        <mxCell id="4752XUYn1DsE7La_0IoM-54" value="&lt;i&gt;GeometricObject&lt;/i&gt;" style="swimlane;fontStyle=1;align=center;verticalAlign=top;childLayout=stackLayout;horizontal=1;startSize=26;horizontalStack=0;resizeParent=1;resizeParentMax=0;resizeLast=0;collapsible=1;marginBottom=0;whiteSpace=wrap;html=1;" parent="1" vertex="1">
          <mxGeometry x="760" y="570" width="160" height="190" as="geometry" />
        </mxCell>
        <mxCell id="4752XUYn1DsE7La_0IoM-55" value="- color: String&lt;br&gt;- filled: boolean&lt;br&gt;- dateCreated: java.util.Date" style="text;strokeColor=none;fillColor=none;align=left;verticalAlign=top;spacingLeft=4;spacingRight=4;overflow=hidden;rotatable=0;points=[[0,0.5],[1,0.5]];portConstraint=eastwest;whiteSpace=wrap;html=1;" parent="4752XUYn1DsE7La_0IoM-54" vertex="1">
          <mxGeometry y="26" width="160" height="64" as="geometry" />
        </mxCell>
        <mxCell id="4752XUYn1DsE7La_0IoM-56" value="" style="line;strokeWidth=1;fillColor=none;align=left;verticalAlign=middle;spacingTop=-1;spacingLeft=3;spacingRight=3;rotatable=0;labelPosition=right;points=[];portConstraint=eastwest;strokeColor=inherit;" parent="4752XUYn1DsE7La_0IoM-54" vertex="1">
          <mxGeometry y="90" width="160" height="8" as="geometry" />
        </mxCell>
        <mxCell id="4752XUYn1DsE7La_0IoM-57" value="# GeometricObject()&lt;br&gt;# GeometricObject(color: String, filled: boolean)&lt;br&gt;&lt;i&gt;+ getArea(): double&lt;br&gt;+ getPerimeter(): double&lt;/i&gt;" style="text;strokeColor=none;fillColor=none;align=left;verticalAlign=top;spacingLeft=4;spacingRight=4;overflow=hidden;rotatable=0;points=[[0,0.5],[1,0.5]];portConstraint=eastwest;whiteSpace=wrap;html=1;" parent="4752XUYn1DsE7La_0IoM-54" vertex="1">
          <mxGeometry y="98" width="160" height="92" as="geometry" />
        </mxCell>
        <mxCell id="4752XUYn1DsE7La_0IoM-58" value="Square" style="swimlane;fontStyle=1;align=center;verticalAlign=top;childLayout=stackLayout;horizontal=1;startSize=26;horizontalStack=0;resizeParent=1;resizeParentMax=0;resizeLast=0;collapsible=1;marginBottom=0;whiteSpace=wrap;html=1;" parent="1" vertex="1">
          <mxGeometry x="870" y="840" width="160" height="120" as="geometry" />
        </mxCell>
        <mxCell id="4752XUYn1DsE7La_0IoM-59" value="- side: double" style="text;strokeColor=none;fillColor=none;align=left;verticalAlign=top;spacingLeft=4;spacingRight=4;overflow=hidden;rotatable=0;points=[[0,0.5],[1,0.5]];portConstraint=eastwest;whiteSpace=wrap;html=1;" parent="4752XUYn1DsE7La_0IoM-58" vertex="1">
          <mxGeometry y="26" width="160" height="26" as="geometry" />
        </mxCell>
        <mxCell id="4752XUYn1DsE7La_0IoM-60" value="" style="line;strokeWidth=1;fillColor=none;align=left;verticalAlign=middle;spacingTop=-1;spacingLeft=3;spacingRight=3;rotatable=0;labelPosition=right;points=[];portConstraint=eastwest;strokeColor=inherit;" parent="4752XUYn1DsE7La_0IoM-58" vertex="1">
          <mxGeometry y="52" width="160" height="8" as="geometry" />
        </mxCell>
        <mxCell id="4752XUYn1DsE7La_0IoM-61" value="+ Square()&lt;br&gt;+ Square(side: double)" style="text;strokeColor=none;fillColor=none;align=left;verticalAlign=top;spacingLeft=4;spacingRight=4;overflow=hidden;rotatable=0;points=[[0,0.5],[1,0.5]];portConstraint=eastwest;whiteSpace=wrap;html=1;" parent="4752XUYn1DsE7La_0IoM-58" vertex="1">
          <mxGeometry y="60" width="160" height="60" as="geometry" />
        </mxCell>
        <mxCell id="4752XUYn1DsE7La_0IoM-62" value="" style="endArrow=block;html=1;rounded=0;entryX=0.45;entryY=1.005;entryDx=0;entryDy=0;entryPerimeter=0;exitX=0.25;exitY=0;exitDx=0;exitDy=0;endFill=0;" parent="1" source="4752XUYn1DsE7La_0IoM-58" target="4752XUYn1DsE7La_0IoM-57" edge="1">
          <mxGeometry width="50" height="50" relative="1" as="geometry">
            <mxPoint x="760" y="890" as="sourcePoint" />
            <mxPoint x="810" y="840" as="targetPoint" />
          </mxGeometry>
        </mxCell>
        <mxCell id="4752XUYn1DsE7La_0IoM-63" value="" style="endArrow=block;html=1;rounded=0;entryX=0.494;entryY=1.135;entryDx=0;entryDy=0;entryPerimeter=0;exitX=0.75;exitY=0;exitDx=0;exitDy=0;dashed=1;endFill=0;" parent="1" source="4752XUYn1DsE7La_0IoM-58" target="4752XUYn1DsE7La_0IoM-53" edge="1">
          <mxGeometry width="50" height="50" relative="1" as="geometry">
            <mxPoint x="770" y="950" as="sourcePoint" />
            <mxPoint x="820" y="900" as="targetPoint" />
          </mxGeometry>
        </mxCell>
        <mxCell id="4752XUYn1DsE7La_0IoM-65" value="Circle" style="swimlane;fontStyle=1;align=center;verticalAlign=top;childLayout=stackLayout;horizontal=1;startSize=26;horizontalStack=0;resizeParent=1;resizeParentMax=0;resizeLast=0;collapsible=1;marginBottom=0;whiteSpace=wrap;html=1;" parent="1" vertex="1">
          <mxGeometry x="280" y="1440" width="160" height="200" as="geometry" />
        </mxCell>
        <mxCell id="4752XUYn1DsE7La_0IoM-66" value="- radius: double" style="text;strokeColor=none;fillColor=none;align=left;verticalAlign=top;spacingLeft=4;spacingRight=4;overflow=hidden;rotatable=0;points=[[0,0.5],[1,0.5]];portConstraint=eastwest;whiteSpace=wrap;html=1;" parent="4752XUYn1DsE7La_0IoM-65" vertex="1">
          <mxGeometry y="26" width="160" height="26" as="geometry" />
        </mxCell>
        <mxCell id="4752XUYn1DsE7La_0IoM-67" value="" style="line;strokeWidth=1;fillColor=none;align=left;verticalAlign=middle;spacingTop=-1;spacingLeft=3;spacingRight=3;rotatable=0;labelPosition=right;points=[];portConstraint=eastwest;strokeColor=inherit;" parent="4752XUYn1DsE7La_0IoM-65" vertex="1">
          <mxGeometry y="52" width="160" height="8" as="geometry" />
        </mxCell>
        <mxCell id="4752XUYn1DsE7La_0IoM-68" value="+ Circle()&lt;br&gt;+ Circle(radius: double)&lt;br&gt;+ Circle(radius: double, color: String, filled: boolean)&lt;br&gt;+ getDiameter(): double&lt;br&gt;+ compareTo(c: Circle): int&lt;br&gt;+ equals(o: Object): boolean" style="text;strokeColor=none;fillColor=none;align=left;verticalAlign=top;spacingLeft=4;spacingRight=4;overflow=hidden;rotatable=0;points=[[0,0.5],[1,0.5]];portConstraint=eastwest;whiteSpace=wrap;html=1;" parent="4752XUYn1DsE7La_0IoM-65" vertex="1">
          <mxGeometry y="60" width="160" height="140" as="geometry" />
        </mxCell>
        <mxCell id="4752XUYn1DsE7La_0IoM-69" value="&lt;i&gt;GeometricObject&lt;/i&gt;" style="swimlane;fontStyle=1;align=center;verticalAlign=top;childLayout=stackLayout;horizontal=1;startSize=26;horizontalStack=0;resizeParent=1;resizeParentMax=0;resizeLast=0;collapsible=1;marginBottom=0;whiteSpace=wrap;html=1;" parent="1" vertex="1">
          <mxGeometry x="200" y="1160" width="160" height="190" as="geometry" />
        </mxCell>
        <mxCell id="4752XUYn1DsE7La_0IoM-70" value="- color: String&lt;br&gt;- filled: boolean&lt;br&gt;- dateCreated: java.util.Date" style="text;strokeColor=none;fillColor=none;align=left;verticalAlign=top;spacingLeft=4;spacingRight=4;overflow=hidden;rotatable=0;points=[[0,0.5],[1,0.5]];portConstraint=eastwest;whiteSpace=wrap;html=1;" parent="4752XUYn1DsE7La_0IoM-69" vertex="1">
          <mxGeometry y="26" width="160" height="64" as="geometry" />
        </mxCell>
        <mxCell id="4752XUYn1DsE7La_0IoM-71" value="" style="line;strokeWidth=1;fillColor=none;align=left;verticalAlign=middle;spacingTop=-1;spacingLeft=3;spacingRight=3;rotatable=0;labelPosition=right;points=[];portConstraint=eastwest;strokeColor=inherit;" parent="4752XUYn1DsE7La_0IoM-69" vertex="1">
          <mxGeometry y="90" width="160" height="8" as="geometry" />
        </mxCell>
        <mxCell id="4752XUYn1DsE7La_0IoM-72" value="# GeometricObject()&lt;br&gt;# GeometricObject(color: String, filled: boolean)&lt;br&gt;&lt;i&gt;+ getArea(): double&lt;br&gt;+ getPerimeter(): double&lt;/i&gt;" style="text;strokeColor=none;fillColor=none;align=left;verticalAlign=top;spacingLeft=4;spacingRight=4;overflow=hidden;rotatable=0;points=[[0,0.5],[1,0.5]];portConstraint=eastwest;whiteSpace=wrap;html=1;" parent="4752XUYn1DsE7La_0IoM-69" vertex="1">
          <mxGeometry y="98" width="160" height="92" as="geometry" />
        </mxCell>
        <mxCell id="4752XUYn1DsE7La_0IoM-73" value="Exercise 09" style="text;html=1;strokeColor=none;fillColor=none;align=center;verticalAlign=middle;whiteSpace=wrap;rounded=0;fontSize=24;" parent="1" vertex="1">
          <mxGeometry x="20" y="1160" width="160" height="30" as="geometry" />
        </mxCell>
        <mxCell id="4752XUYn1DsE7La_0IoM-74" value="«interface»&lt;br&gt;&lt;b&gt;&lt;i&gt;java.lang.Comparable&lt;/i&gt;&lt;/b&gt;" style="html=1;whiteSpace=wrap;" parent="1" vertex="1">
          <mxGeometry x="390" y="1300" width="150" height="50" as="geometry" />
        </mxCell>
        <mxCell id="4752XUYn1DsE7La_0IoM-75" value="" style="endArrow=block;html=1;rounded=0;entryX=0.479;entryY=1.025;entryDx=0;entryDy=0;entryPerimeter=0;exitX=0.25;exitY=0;exitDx=0;exitDy=0;endFill=0;" parent="1" source="4752XUYn1DsE7La_0IoM-65" target="4752XUYn1DsE7La_0IoM-72" edge="1">
          <mxGeometry width="50" height="50" relative="1" as="geometry">
            <mxPoint x="200" y="1520" as="sourcePoint" />
            <mxPoint x="250" y="1470" as="targetPoint" />
          </mxGeometry>
        </mxCell>
        <mxCell id="4752XUYn1DsE7La_0IoM-76" value="" style="endArrow=block;html=1;rounded=0;entryX=0.5;entryY=1;entryDx=0;entryDy=0;exitX=0.682;exitY=-0.017;exitDx=0;exitDy=0;exitPerimeter=0;dashed=1;endFill=0;" parent="1" source="4752XUYn1DsE7La_0IoM-65" target="4752XUYn1DsE7La_0IoM-74" edge="1">
          <mxGeometry width="50" height="50" relative="1" as="geometry">
            <mxPoint x="390" y="1430" as="sourcePoint" />
            <mxPoint x="440" y="1380" as="targetPoint" />
          </mxGeometry>
        </mxCell>
        <mxCell id="4752XUYn1DsE7La_0IoM-77" value="&lt;i&gt;GeometricObject&lt;/i&gt;" style="swimlane;fontStyle=1;align=center;verticalAlign=top;childLayout=stackLayout;horizontal=1;startSize=26;horizontalStack=0;resizeParent=1;resizeParentMax=0;resizeLast=0;collapsible=1;marginBottom=0;whiteSpace=wrap;html=1;" parent="1" vertex="1">
          <mxGeometry x="800" y="1170" width="160" height="190" as="geometry" />
        </mxCell>
        <mxCell id="4752XUYn1DsE7La_0IoM-78" value="- color: String&lt;br&gt;- filled: boolean&lt;br&gt;- dateCreated: java.util.Date" style="text;strokeColor=none;fillColor=none;align=left;verticalAlign=top;spacingLeft=4;spacingRight=4;overflow=hidden;rotatable=0;points=[[0,0.5],[1,0.5]];portConstraint=eastwest;whiteSpace=wrap;html=1;" parent="4752XUYn1DsE7La_0IoM-77" vertex="1">
          <mxGeometry y="26" width="160" height="64" as="geometry" />
        </mxCell>
        <mxCell id="4752XUYn1DsE7La_0IoM-79" value="" style="line;strokeWidth=1;fillColor=none;align=left;verticalAlign=middle;spacingTop=-1;spacingLeft=3;spacingRight=3;rotatable=0;labelPosition=right;points=[];portConstraint=eastwest;strokeColor=inherit;" parent="4752XUYn1DsE7La_0IoM-77" vertex="1">
          <mxGeometry y="90" width="160" height="8" as="geometry" />
        </mxCell>
        <mxCell id="4752XUYn1DsE7La_0IoM-80" value="# GeometricObject()&lt;br&gt;# GeometricObject(color: String, filled: boolean)&lt;br&gt;&lt;i&gt;+ getArea(): double&lt;br&gt;+ getPerimeter(): double&lt;/i&gt;" style="text;strokeColor=none;fillColor=none;align=left;verticalAlign=top;spacingLeft=4;spacingRight=4;overflow=hidden;rotatable=0;points=[[0,0.5],[1,0.5]];portConstraint=eastwest;whiteSpace=wrap;html=1;" parent="4752XUYn1DsE7La_0IoM-77" vertex="1">
          <mxGeometry y="98" width="160" height="92" as="geometry" />
        </mxCell>
        <mxCell id="4752XUYn1DsE7La_0IoM-81" value="Exercise 11" style="text;html=1;strokeColor=none;fillColor=none;align=center;verticalAlign=middle;whiteSpace=wrap;rounded=0;fontSize=24;" parent="1" vertex="1">
          <mxGeometry x="620" y="1170" width="160" height="30" as="geometry" />
        </mxCell>
        <mxCell id="4752XUYn1DsE7La_0IoM-82" value="«interface»&lt;br&gt;&lt;b&gt;&lt;i&gt;java.lang.Comparable&lt;/i&gt;&lt;/b&gt;" style="html=1;whiteSpace=wrap;" parent="1" vertex="1">
          <mxGeometry x="1040" y="1390" width="150" height="50" as="geometry" />
        </mxCell>
        <mxCell id="4752XUYn1DsE7La_0IoM-83" value="«interface»&lt;br&gt;&lt;b&gt;&lt;i&gt;java.lang.Cloneable&lt;/i&gt;&lt;/b&gt;" style="html=1;whiteSpace=wrap;" parent="1" vertex="1">
          <mxGeometry x="1040" y="1526" width="150" height="50" as="geometry" />
        </mxCell>
        <mxCell id="4752XUYn1DsE7La_0IoM-88" value="" style="endArrow=block;html=1;rounded=0;entryX=0.5;entryY=1;entryDx=0;entryDy=0;exitX=0.5;exitY=0;exitDx=0;exitDy=0;endFill=0;" parent="1" source="4752XUYn1DsE7La_0IoM-91" target="4752XUYn1DsE7La_0IoM-77" edge="1">
          <mxGeometry width="50" height="50" relative="1" as="geometry">
            <mxPoint x="880" y="1439.9999999999998" as="sourcePoint" />
            <mxPoint x="730" y="1480" as="targetPoint" />
          </mxGeometry>
        </mxCell>
        <mxCell id="4752XUYn1DsE7La_0IoM-89" value="" style="endArrow=block;html=1;rounded=0;entryX=0;entryY=0.5;entryDx=0;entryDy=0;exitX=1.012;exitY=0.094;exitDx=0;exitDy=0;dashed=1;endFill=0;exitPerimeter=0;" parent="1" source="4752XUYn1DsE7La_0IoM-91" target="4752XUYn1DsE7La_0IoM-82" edge="1">
          <mxGeometry width="50" height="50" relative="1" as="geometry">
            <mxPoint x="959.9999999999995" y="1439.9999999999998" as="sourcePoint" />
            <mxPoint x="770" y="1540" as="targetPoint" />
          </mxGeometry>
        </mxCell>
        <mxCell id="4752XUYn1DsE7La_0IoM-90" value="" style="endArrow=block;html=1;rounded=0;entryX=0;entryY=0.5;entryDx=0;entryDy=0;dashed=1;endFill=0;" parent="1" source="4752XUYn1DsE7La_0IoM-91" target="4752XUYn1DsE7La_0IoM-83" edge="1">
          <mxGeometry width="50" height="50" relative="1" as="geometry">
            <mxPoint x="961.4399999999998" y="1494.6779999999999" as="sourcePoint" />
            <mxPoint x="940" y="1580" as="targetPoint" />
          </mxGeometry>
        </mxCell>
        <mxCell id="4752XUYn1DsE7La_0IoM-91" value="Octagon" style="swimlane;fontStyle=1;align=center;verticalAlign=top;childLayout=stackLayout;horizontal=1;startSize=26;horizontalStack=0;resizeParent=1;resizeParentMax=0;resizeLast=0;collapsible=1;marginBottom=0;whiteSpace=wrap;html=1;" parent="1" vertex="1">
          <mxGeometry x="800" y="1440" width="160" height="130" as="geometry" />
        </mxCell>
        <mxCell id="4752XUYn1DsE7La_0IoM-92" value="- side: double" style="text;strokeColor=none;fillColor=none;align=left;verticalAlign=top;spacingLeft=4;spacingRight=4;overflow=hidden;rotatable=0;points=[[0,0.5],[1,0.5]];portConstraint=eastwest;whiteSpace=wrap;html=1;" parent="4752XUYn1DsE7La_0IoM-91" vertex="1">
          <mxGeometry y="26" width="160" height="26" as="geometry" />
        </mxCell>
        <mxCell id="4752XUYn1DsE7La_0IoM-93" value="" style="line;strokeWidth=1;fillColor=none;align=left;verticalAlign=middle;spacingTop=-1;spacingLeft=3;spacingRight=3;rotatable=0;labelPosition=right;points=[];portConstraint=eastwest;strokeColor=inherit;" parent="4752XUYn1DsE7La_0IoM-91" vertex="1">
          <mxGeometry y="52" width="160" height="8" as="geometry" />
        </mxCell>
        <mxCell id="4752XUYn1DsE7La_0IoM-94" value="+ Octagon()&lt;br&gt;+ Octagon(side: double)&lt;br&gt;+ equals (obj: Object): boolean" style="text;strokeColor=none;fillColor=none;align=left;verticalAlign=top;spacingLeft=4;spacingRight=4;overflow=hidden;rotatable=0;points=[[0,0.5],[1,0.5]];portConstraint=eastwest;whiteSpace=wrap;html=1;" parent="4752XUYn1DsE7La_0IoM-91" vertex="1">
          <mxGeometry y="60" width="160" height="70" as="geometry" />
        </mxCell>
        <mxCell id="4752XUYn1DsE7La_0IoM-95" value="Rectangle" style="swimlane;fontStyle=1;align=center;verticalAlign=top;childLayout=stackLayout;horizontal=1;startSize=26;horizontalStack=0;resizeParent=1;resizeParentMax=0;resizeLast=0;collapsible=1;marginBottom=0;whiteSpace=wrap;html=1;" parent="1" vertex="1">
          <mxGeometry x="290" y="1990" width="160" height="238" as="geometry" />
        </mxCell>
        <mxCell id="4752XUYn1DsE7La_0IoM-96" value="- width: double&lt;br&gt;- height: double" style="text;strokeColor=none;fillColor=none;align=left;verticalAlign=top;spacingLeft=4;spacingRight=4;overflow=hidden;rotatable=0;points=[[0,0.5],[1,0.5]];portConstraint=eastwest;whiteSpace=wrap;html=1;" parent="4752XUYn1DsE7La_0IoM-95" vertex="1">
          <mxGeometry y="26" width="160" height="64" as="geometry" />
        </mxCell>
        <mxCell id="4752XUYn1DsE7La_0IoM-97" value="" style="line;strokeWidth=1;fillColor=none;align=left;verticalAlign=middle;spacingTop=-1;spacingLeft=3;spacingRight=3;rotatable=0;labelPosition=right;points=[];portConstraint=eastwest;strokeColor=inherit;" parent="4752XUYn1DsE7La_0IoM-95" vertex="1">
          <mxGeometry y="90" width="160" height="8" as="geometry" />
        </mxCell>
        <mxCell id="4752XUYn1DsE7La_0IoM-98" value="+ Rectangle()&lt;br&gt;+ Rectangle(width: double, height: double)&lt;br&gt;+ equals(o: Object): boolean" style="text;strokeColor=none;fillColor=none;align=left;verticalAlign=top;spacingLeft=4;spacingRight=4;overflow=hidden;rotatable=0;points=[[0,0.5],[1,0.5]];portConstraint=eastwest;whiteSpace=wrap;html=1;" parent="4752XUYn1DsE7La_0IoM-95" vertex="1">
          <mxGeometry y="98" width="160" height="140" as="geometry" />
        </mxCell>
        <mxCell id="4752XUYn1DsE7La_0IoM-99" value="&lt;i&gt;GeometricObject&lt;/i&gt;" style="swimlane;fontStyle=1;align=center;verticalAlign=top;childLayout=stackLayout;horizontal=1;startSize=26;horizontalStack=0;resizeParent=1;resizeParentMax=0;resizeLast=0;collapsible=1;marginBottom=0;whiteSpace=wrap;html=1;" parent="1" vertex="1">
          <mxGeometry x="210" y="1710" width="160" height="190" as="geometry" />
        </mxCell>
        <mxCell id="4752XUYn1DsE7La_0IoM-100" value="- color: String&lt;br&gt;- filled: boolean&lt;br&gt;- dateCreated: java.util.Date" style="text;strokeColor=none;fillColor=none;align=left;verticalAlign=top;spacingLeft=4;spacingRight=4;overflow=hidden;rotatable=0;points=[[0,0.5],[1,0.5]];portConstraint=eastwest;whiteSpace=wrap;html=1;" parent="4752XUYn1DsE7La_0IoM-99" vertex="1">
          <mxGeometry y="26" width="160" height="64" as="geometry" />
        </mxCell>
        <mxCell id="4752XUYn1DsE7La_0IoM-101" value="" style="line;strokeWidth=1;fillColor=none;align=left;verticalAlign=middle;spacingTop=-1;spacingLeft=3;spacingRight=3;rotatable=0;labelPosition=right;points=[];portConstraint=eastwest;strokeColor=inherit;" parent="4752XUYn1DsE7La_0IoM-99" vertex="1">
          <mxGeometry y="90" width="160" height="8" as="geometry" />
        </mxCell>
        <mxCell id="4752XUYn1DsE7La_0IoM-102" value="# GeometricObject()&lt;br&gt;# GeometricObject(color: String, filled: boolean)&lt;br&gt;&lt;i&gt;+ getArea(): double&lt;br&gt;+ getPerimeter(): double&lt;/i&gt;" style="text;strokeColor=none;fillColor=none;align=left;verticalAlign=top;spacingLeft=4;spacingRight=4;overflow=hidden;rotatable=0;points=[[0,0.5],[1,0.5]];portConstraint=eastwest;whiteSpace=wrap;html=1;" parent="4752XUYn1DsE7La_0IoM-99" vertex="1">
          <mxGeometry y="98" width="160" height="92" as="geometry" />
        </mxCell>
        <mxCell id="4752XUYn1DsE7La_0IoM-103" value="Exercise 10" style="text;html=1;strokeColor=none;fillColor=none;align=center;verticalAlign=middle;whiteSpace=wrap;rounded=0;fontSize=24;" parent="1" vertex="1">
          <mxGeometry x="30" y="1710" width="160" height="30" as="geometry" />
        </mxCell>
        <mxCell id="4752XUYn1DsE7La_0IoM-104" value="«interface»&lt;br&gt;&lt;b&gt;&lt;i&gt;java.lang.Comparable&lt;/i&gt;&lt;/b&gt;" style="html=1;whiteSpace=wrap;" parent="1" vertex="1">
          <mxGeometry x="400" y="1850" width="150" height="50" as="geometry" />
        </mxCell>
        <mxCell id="4752XUYn1DsE7La_0IoM-105" value="" style="endArrow=block;html=1;rounded=0;entryX=0.479;entryY=1.025;entryDx=0;entryDy=0;entryPerimeter=0;exitX=0.25;exitY=0;exitDx=0;exitDy=0;endFill=0;" parent="1" source="4752XUYn1DsE7La_0IoM-95" target="4752XUYn1DsE7La_0IoM-102" edge="1">
          <mxGeometry width="50" height="50" relative="1" as="geometry">
            <mxPoint x="210" y="2070" as="sourcePoint" />
            <mxPoint x="260" y="2020" as="targetPoint" />
          </mxGeometry>
        </mxCell>
        <mxCell id="4752XUYn1DsE7La_0IoM-106" value="" style="endArrow=block;html=1;rounded=0;entryX=0.5;entryY=1;entryDx=0;entryDy=0;exitX=0.682;exitY=-0.017;exitDx=0;exitDy=0;exitPerimeter=0;dashed=1;endFill=0;" parent="1" source="4752XUYn1DsE7La_0IoM-95" target="4752XUYn1DsE7La_0IoM-104" edge="1">
          <mxGeometry width="50" height="50" relative="1" as="geometry">
            <mxPoint x="400" y="1980" as="sourcePoint" />
            <mxPoint x="450" y="1930" as="targetPoint" />
          </mxGeometry>
        </mxCell>
      </root>
    </mxGraphModel>
  </diagram>
</mxfile>
